<svg width="168" height="184" viewBox="0 0 168 184" fill="none" xmlns="http://www.w3.org/2000/svg">
<mask id="mask0_1_196" style="mask-type:alpha" maskUnits="userSpaceOnUse" x="9" y="0" width="159" height="184">
<rect x="9.53693" y="0.835266" width="157.933" height="183.032" rx="19.0044" fill="url(#paint0_linear_1_196)"/>
</mask>
<g mask="url(#mask0_1_196)">
<path d="M32.857 42.3662C32.857 51.4413 25.5002 58.7981 16.425 58.7981C7.34993 58.7981 -0.00689697 51.4413 -0.00689697 42.3662C-0.00689697 37.5815 2.03813 33.2744 5.30181 30.2713C8.22831 27.5785 12.1347 25.9342 16.425 25.9342C25.5002 25.9342 32.857 33.2911 32.857 42.3662Z" fill="#D15842"/>
<path d="M80.2807 42.3662C80.2807 51.4413 72.9239 58.7981 63.8488 58.7981C54.7737 58.7981 47.4168 51.4413 47.4168 42.3662C47.4168 41.2069 47.5369 40.0758 47.7652 38.9844C49.3244 31.5316 55.9329 25.9342 63.8488 25.9342C72.9239 25.9342 80.2807 33.2911 80.2807 42.3662Z" fill="#D15842"/>
<path d="M61.8272 22.7221C61.8272 30.9924 55.7174 37.8356 47.7652 38.9844C46.9914 39.0961 46.2001 39.154 45.3952 39.154C37.4194 39.154 30.7708 33.4715 29.2771 25.9342C29.0712 24.8954 28.9633 23.8213 28.9633 22.7221C28.9633 21.2783 29.1495 19.8781 29.4992 18.544C31.3475 11.4924 37.7638 6.29012 45.3952 6.29012C54.4703 6.29012 61.8272 13.6469 61.8272 22.7221Z" fill="#D15842"/>
<path d="M32.857 42.3662C32.857 51.4413 25.5002 58.7981 16.425 58.7981H63.8488C54.7737 58.7981 47.4168 51.4413 47.4168 42.3662C47.4168 41.2069 47.5369 40.0758 47.7652 38.9844C46.9914 39.0961 46.2001 39.154 45.3952 39.154C37.4194 39.154 30.7708 33.4715 29.2771 25.9342H18.5584H16.425C25.5002 25.9342 32.857 33.2911 32.857 42.3662Z" fill="#D15842"/>
<path d="M29.2771 25.9342C29.0712 24.8954 28.9633 23.8213 28.9633 22.7221C28.9633 21.2783 29.1495 19.8781 29.4992 18.544C28.126 21.0074 24.0155 25.9342 18.5584 25.9342H29.2771Z" fill="#D15842"/>
<path d="M112.096 29.4042C112.096 35.4147 107.224 40.2873 101.213 40.2873C95.2025 40.2873 90.33 35.4147 90.33 29.4042C90.33 26.2352 91.6845 23.3826 93.846 21.3936C95.7843 19.6101 98.3715 18.5211 101.213 18.5211C107.224 18.5211 112.096 23.3936 112.096 29.4042Z" fill="#D15842"/>
<path d="M143.505 29.4042C143.505 35.4147 138.633 40.2873 132.622 40.2873C126.612 40.2873 121.739 35.4147 121.739 29.4042C121.739 28.6364 121.819 27.8872 121.97 27.1644C123.003 22.2283 127.38 18.5211 132.622 18.5211C138.633 18.5211 143.505 23.3936 143.505 29.4042Z" fill="#D15842"/>
<path d="M131.283 16.3936C131.283 21.8712 127.237 26.4035 121.97 27.1644C121.458 27.2384 120.933 27.2767 120.4 27.2767C115.118 27.2767 110.714 23.5131 109.725 18.5211C109.589 17.8331 109.517 17.1217 109.517 16.3936C109.517 15.4374 109.641 14.51 109.872 13.6265C111.096 8.95609 115.346 5.51056 120.4 5.51056C126.411 5.51056 131.283 10.3831 131.283 16.3936Z" fill="#D15842"/>
<path d="M112.096 29.4042C112.096 35.4147 107.224 40.2873 101.213 40.2873H132.622C126.612 40.2873 121.739 35.4147 121.739 29.4042C121.739 28.6364 121.819 27.8872 121.97 27.1644C121.458 27.2384 120.933 27.2767 120.4 27.2767C115.118 27.2767 110.714 23.5131 109.725 18.5211H102.626H101.213C107.224 18.5211 112.096 23.3936 112.096 29.4042Z" fill="#D15842"/>
<path d="M109.725 18.5211C109.589 17.8331 109.517 17.1217 109.517 16.3936C109.517 15.4374 109.641 14.51 109.872 13.6265C108.963 15.258 106.24 18.5211 102.626 18.5211H109.725Z" fill="#D15842"/>
<circle cx="80.4155" cy="79.8679" r="14.5666" transform="rotate(-30 80.4155 79.8679)" fill="#D15842"/>
<path d="M86.2995 80.2197C86.8193 81.1201 86.9541 82.0557 86.7039 83.0266C86.4536 83.9974 85.9157 84.8615 85.09 85.6189L85.7179 86.7064C85.8934 87.0104 85.9333 87.3226 85.8376 87.6429C85.7603 87.9682 85.5697 88.2186 85.2657 88.3941C84.9733 88.5629 84.667 88.5994 84.3467 88.5037C84.0331 88.4197 83.7885 88.2257 83.613 87.9216L83.0459 86.9393C82.3807 87.2455 81.7242 87.4452 81.0764 87.5385C80.4404 87.6251 79.7553 87.5996 79.0211 87.4622C78.5433 87.3639 78.2065 87.1451 78.0107 86.806C77.8555 86.5371 77.8198 86.2458 77.9038 85.9322C77.9811 85.607 78.1601 85.3633 78.4407 85.2013C78.6629 85.073 78.9022 85.0284 79.1586 85.0674C79.6899 85.1505 80.1699 85.1852 80.5986 85.1716C81.0206 85.1462 81.4414 85.0514 81.861 84.8871L79.8862 81.4667C77.286 82.391 75.4322 81.8943 74.325 79.9765C73.7646 79.0059 73.633 78.0217 73.93 77.0239C74.2203 76.0143 74.8453 75.139 75.805 74.3978L75.4708 73.8189C75.2953 73.5149 75.2495 73.2061 75.3335 72.8925C75.4225 72.5605 75.619 72.3067 75.923 72.1312C76.2154 71.9624 76.5217 71.9259 76.842 72.0216C77.1556 72.1056 77.4001 72.2996 77.5757 72.6037L77.9504 73.2527C79.0456 72.8542 80.0735 72.7441 81.034 72.9224C81.5284 72.9956 81.8768 73.2076 82.0794 73.5584C82.2347 73.8273 82.2737 74.1244 82.1964 74.4497C82.1124 74.7633 81.9359 74.9977 81.6669 75.153C81.4915 75.2542 81.3033 75.2928 81.1022 75.2685C80.5826 75.1787 79.9405 75.2143 79.1758 75.3751L81.0493 78.6201C82.3389 78.2342 83.3928 78.1558 84.2112 78.385C85.0228 78.6024 85.7189 79.214 86.2995 80.2197ZM76.3442 78.6938C76.567 79.0797 76.872 79.3246 77.2594 79.4284C77.64 79.5205 78.1105 79.4983 78.671 79.3618L76.9899 76.45C76.5644 76.8204 76.2998 77.1992 76.196 77.5866C76.0922 77.9739 76.1416 78.343 76.3442 78.6938ZM83.8747 83.514C84.1329 83.1779 84.303 82.8379 84.3852 82.4942C84.4607 82.1388 84.4208 81.8267 84.2655 81.5577C84.0764 81.2303 83.8209 81.0036 83.4987 80.8778C83.1699 80.7402 82.7652 80.701 82.2848 80.7601L83.8747 83.514Z" fill="#ED654C"/>
<circle cx="42.9242" cy="106.27" r="14.5666" transform="rotate(30 42.9242 106.27)" fill="#D15842"/>
<path d="M45.5612 111.541C45.0414 112.442 44.2985 113.026 43.3326 113.295C42.3667 113.564 41.3494 113.53 40.2806 113.193L39.6528 114.281C39.4772 114.585 39.2268 114.776 38.9016 114.853C38.5812 114.949 38.2691 114.909 37.965 114.733C37.6727 114.564 37.4879 114.317 37.4106 113.992C37.3266 113.679 37.3723 113.37 37.5479 113.066L38.115 112.083C37.5173 111.66 37.0161 111.192 36.6114 110.677C36.2184 110.17 35.8978 109.564 35.6498 108.859C35.4961 108.396 35.5171 107.995 35.7129 107.656C35.8682 107.387 36.1026 107.211 36.4162 107.127C36.7365 107.031 37.037 107.064 37.3176 107.226C37.5398 107.355 37.6981 107.539 37.7925 107.781C37.9862 108.283 38.1961 108.716 38.4223 109.08C38.6552 109.433 38.9477 109.75 39.2999 110.031L41.2747 106.611C39.174 104.821 38.6773 102.967 39.7845 101.05C40.3449 100.079 41.1314 99.4728 42.1441 99.2311C43.1635 98.9777 44.2341 99.0813 45.3559 99.5419L45.6901 98.963C45.8656 98.659 46.1102 98.465 46.4237 98.3809C46.7557 98.292 47.0738 98.3353 47.3778 98.5108C47.6702 98.6796 47.855 98.9266 47.9322 99.2519C48.0162 99.5654 47.9705 99.8742 47.795 100.178L47.4202 100.827C48.313 101.577 48.9222 102.412 49.2481 103.333C49.4319 103.797 49.4225 104.205 49.22 104.556C49.0647 104.825 48.8269 105.007 48.5066 105.103C48.193 105.187 47.9018 105.151 47.6328 104.996C47.4574 104.895 47.3299 104.751 47.2504 104.565C47.0683 104.07 46.7165 103.532 46.1949 102.95L44.3214 106.195C45.3004 107.119 45.8952 107.992 46.1059 108.815C46.3234 109.627 46.1418 110.536 45.5612 111.541ZM41.905 102.157C41.6822 102.543 41.6227 102.929 41.7264 103.317C41.837 103.692 42.0915 104.089 42.4899 104.506L44.171 101.594C43.6375 101.411 43.1771 101.371 42.7898 101.475C42.4024 101.579 42.1075 101.806 41.905 102.157ZM41.4959 111.089C41.916 111.144 42.2955 111.121 42.6342 111.021C42.9798 110.908 43.2302 110.718 43.3854 110.449C43.5745 110.121 43.643 109.787 43.5909 109.445C43.5456 109.091 43.3772 108.721 43.0858 108.335L41.4959 111.089Z" fill="#ED654C"/>
</g>
<defs>
<linearGradient id="paint0_linear_1_196" x1="88.5035" y1="0.835266" x2="88.5035" y2="183.867" gradientUnits="userSpaceOnUse">
<stop stop-color="#70BDF0"/>
<stop offset="1" stop-color="#90C9EF"/>
</linearGradient>
</defs>
</svg>
