<svg width="36" height="36" viewBox="0 0 36 36" fill="none" xmlns="http://www.w3.org/2000/svg">
<path d="M29.1219 23.1076L24.2028 18.1801V14.5267C24.2035 14.4156 24.1822 14.3056 24.1402 14.2028C24.0982 14.1 24.0363 14.0065 23.9581 13.9276L15.5206 5.49012C15.4422 5.41104 15.3489 5.34827 15.2461 5.30543C15.1432 5.26259 15.033 5.24054 14.9216 5.24054C14.8102 5.24054 14.6999 5.26259 14.5971 5.30543C14.4943 5.34827 14.401 5.41104 14.3225 5.49012L6.72877 13.0839C6.64968 13.1623 6.58691 13.2556 6.54408 13.3584C6.50124 13.4613 6.47919 13.5715 6.47919 13.6829C6.47919 13.7943 6.50124 13.9046 6.54408 14.0074C6.58691 14.1102 6.64968 14.2036 6.72877 14.282L15.1663 22.7195C15.2451 22.7977 15.3386 22.8596 15.4414 22.9016C15.5442 22.9435 15.6543 22.9648 15.7653 22.9642H19.4272L24.3463 27.8917C24.9796 28.525 25.8385 28.8807 26.7341 28.8807C27.6297 28.8807 28.4886 28.525 29.1219 27.8917C29.7552 27.2584 30.111 26.3995 30.111 25.5039C30.111 24.6083 29.7552 23.7493 29.1219 23.1161V23.1076ZM9.85908 12.3414L11.7913 14.282L12.9894 13.0839L11.0488 11.1517L12.3903 9.81012L16.01 13.4382L17.2081 12.2401L13.58 8.62043L14.9216 7.27887L20.4819 12.8392L14.0778 19.2432L8.51752 13.6829L9.85908 12.3414ZM27.9238 26.6851C27.6076 26.9994 27.1799 27.1758 26.7341 27.1758C26.2883 27.1758 25.8606 26.9994 25.5444 26.6851L20.3722 21.5214C20.1924 21.3977 19.9881 21.3143 19.7731 21.2767H16.1113L15.2675 20.4329L21.6716 14.0289L22.5153 14.8726V18.5345C22.5163 18.7558 22.6041 18.968 22.76 19.1251L27.9238 24.3057C28.2381 24.6219 28.4145 25.0496 28.4145 25.4954C28.4145 25.9412 28.2381 26.3689 27.9238 26.6851Z" fill="url(#paint0_linear_1_273)"/>
<path d="M27.9238 26.6851C27.6076 26.9994 27.1799 27.1758 26.7341 27.1758C26.2883 27.1758 25.8606 26.9994 25.5444 26.6851L20.3722 21.5214C20.1924 21.3977 19.9881 21.3143 19.7731 21.2767H16.1113L15.2675 20.4329L21.6716 14.0289L22.5153 14.8726V18.5345C22.5163 18.7558 22.6041 18.968 22.76 19.1251L27.9238 24.3057C28.2381 24.6219 28.4145 25.0496 28.4145 25.4954C28.4145 25.9412 28.2381 26.3689 27.9238 26.6851Z" fill="url(#paint1_linear_1_273)"/>
<defs>
<linearGradient id="paint0_linear_1_273" x1="18.2951" y1="5.24054" x2="18.2951" y2="28.8807" gradientUnits="userSpaceOnUse">
<stop stop-color="#FFA764"/>
<stop offset="1" stop-color="#F17F29"/>
</linearGradient>
<linearGradient id="paint1_linear_1_273" x1="18.2951" y1="5.24054" x2="18.2951" y2="28.8807" gradientUnits="userSpaceOnUse">
<stop stop-color="#FFA764"/>
<stop offset="1" stop-color="#F17F29"/>
</linearGradient>
</defs>
</svg>
