<svg width="104" height="110" viewBox="0 0 104 110" fill="none" xmlns="http://www.w3.org/2000/svg">
<path d="M65.7833 23.6231L65.5638 24.6723L66.6246 24.519C67.1459 24.4437 67.6793 24.4047 68.2223 24.4047C74.3367 24.4047 79.2934 29.3614 79.2934 35.4757C79.2934 41.5901 74.3367 46.5468 68.2223 46.5468H34.1059C27.9915 46.5468 23.0349 41.5901 23.0349 35.4757C23.0349 32.252 24.4117 29.351 26.6117 27.3267C28.5841 25.5119 31.2148 24.4047 34.1059 24.4047H35.6407C37.835 24.4047 39.7186 23.415 41.1527 22.2414C42.5864 21.0682 43.6313 19.6635 44.1665 18.7034L44.2127 18.6203L44.2369 18.5284C45.4822 13.7771 49.8063 10.2728 54.9469 10.2728C61.0613 10.2728 66.018 15.2295 66.018 21.3439C66.018 22.1259 65.937 22.8882 65.7833 23.6231Z" stroke="#197BBD" stroke-width="1.5"/>
<path d="M60.0389 62.3518V52.8613" stroke="#197BBD" stroke-width="1.5" stroke-linecap="round" stroke-linejoin="round"/>
<path d="M55.2947 57.6065L60.04 52.8613L64.7852 57.6065" stroke="#197BBD" stroke-width="1.5" stroke-linecap="round" stroke-linejoin="round"/>
<path d="M43.0927 44.7274L47.8379 39.9822L52.5832 44.7274" stroke="#197BBD" stroke-width="0.683017" stroke-linecap="round" stroke-linejoin="round"/>
<g clip-path="url(#clip0_1_150)">
<path d="M44.9463 60.3988L36.3182 69.0269C35.7887 69.5564 35.7887 70.4148 36.3182 70.9443L42.0703 76.6964C42.5997 77.2258 43.4582 77.2258 43.9876 76.6964L52.6157 68.0682C53.1452 67.5388 53.1452 66.6803 52.6157 66.1509L46.8637 60.3988C46.3342 59.8693 45.4758 59.8693 44.9463 60.3988Z" stroke="#197BBD" stroke-width="1.5" stroke-linecap="round" stroke-linejoin="round"/>
<path d="M38.2358 72.8613L48.7813 62.3158" stroke="#197BBD" stroke-width="1.5" stroke-linecap="round" stroke-linejoin="round"/>
</g>
<circle cx="37.1596" cy="17.8721" r="11.7215" transform="rotate(-30 37.1596 17.8721)" stroke="#197BBD" stroke-width="1.5"/>
<path d="M40.86 17.3756C41.0781 17.7534 41.177 18.1618 41.1566 18.6007C41.1444 19.0348 41.0128 19.4612 40.7617 19.88C40.5189 20.294 40.1735 20.6631 39.7255 20.9874L40.5293 22.3796C40.591 22.4864 40.6038 22.594 40.5678 22.7024C40.5448 22.8142 40.4799 22.901 40.3731 22.9626C40.2663 23.0243 40.1547 23.0395 40.0381 23.0082C39.9344 22.9805 39.8518 22.9132 39.7901 22.8064L38.9934 21.4265C38.457 21.6924 37.9266 21.8454 37.4021 21.8854C36.8776 21.9253 36.3133 21.8679 35.7091 21.7129C35.5631 21.6877 35.4569 21.6176 35.3905 21.5026C35.3336 21.404 35.3184 21.2923 35.3449 21.1675C35.3796 21.038 35.4463 20.9447 35.5449 20.8878C35.6434 20.8309 35.7575 20.8198 35.887 20.8545C36.8224 21.1468 37.718 21.0952 38.5738 20.6996L36.5821 17.25C35.6725 17.4575 34.9104 17.5033 34.2958 17.3872C33.6812 17.2711 33.1772 16.8722 32.7836 16.1905C32.4374 15.5909 32.3658 14.9642 32.5687 14.3104C32.767 13.6484 33.2085 13.0759 33.8933 12.5929L33.3456 11.6442C33.284 11.5375 33.267 11.4322 33.2948 11.3286C33.3261 11.212 33.3951 11.1229 33.5018 11.0612C33.6086 10.9996 33.7162 10.9868 33.8246 11.0227C33.9364 11.0458 34.0232 11.1107 34.0848 11.2174L34.6254 12.1538C35.0845 11.9435 35.5503 11.8115 36.023 11.7576C36.4956 11.7037 36.9252 11.7459 37.3117 11.8842C37.5155 11.9527 37.6459 12.0362 37.7028 12.1348C37.7549 12.2251 37.7636 12.3351 37.7289 12.4647C37.6895 12.586 37.6205 12.6751 37.5219 12.732C37.4398 12.7794 37.3534 12.791 37.2627 12.7667C36.941 12.6458 36.5831 12.595 36.1891 12.6144C35.7951 12.6338 35.4162 12.7267 35.0522 12.893L36.987 16.2441C37.5863 16.1062 38.1089 16.0344 38.5547 16.0289C39.004 16.0105 39.4262 16.1062 39.8212 16.3162C40.2197 16.5132 40.566 16.8664 40.86 17.3756ZM33.5332 15.7248C33.7703 16.1355 34.0996 16.3834 34.5211 16.4686C34.9509 16.5491 35.479 16.5343 36.1055 16.4245L34.313 13.3198C33.8534 13.6618 33.5516 14.0496 33.4077 14.4831C33.259 14.9085 33.3008 15.3224 33.5332 15.7248ZM39.3059 20.2605C39.7525 19.915 40.0519 19.5232 40.2041 19.0849C40.3515 18.6384 40.3114 18.218 40.0838 17.8237C39.829 17.4014 39.4885 17.1435 39.0622 17.0501C38.6312 16.9485 38.0959 16.9509 37.4565 17.0573L39.3059 20.2605Z" fill="#197BBD"/>
<path d="M22.2849 35.4745C22.2849 42.0031 27.5773 47.2955 34.1059 47.2955H68.2223C74.7509 47.2955 80.0434 42.0031 80.0434 35.4745C80.0434 28.9459 74.7509 23.6534 68.2223 23.6534C67.6433 23.6534 67.0741 23.695 66.5174 23.7755C66.6816 22.9903 66.768 22.1765 66.768 21.3426C66.768 14.814 61.4755 9.52155 54.9469 9.52155C49.4569 9.52155 44.8411 13.264 43.5114 18.337C42.5235 20.1091 39.5665 23.6534 35.6407 23.6534H34.1059C31.0194 23.6534 28.2092 24.8363 26.1039 26.7735C23.756 28.9339 22.2849 32.0324 22.2849 35.4745Z" fill="white"/>
<path d="M65.7833 23.6219L65.5638 24.671L66.6246 24.5178C67.1459 24.4425 67.6793 24.4034 68.2223 24.4034C74.3367 24.4034 79.2934 29.3601 79.2934 35.4745C79.2934 41.5889 74.3367 46.5455 68.2223 46.5455H34.1059C27.9915 46.5455 23.0349 41.5889 23.0349 35.4745C23.0349 32.2508 24.4117 29.3497 26.6117 27.3254C28.5841 25.5106 31.2148 24.4034 34.1059 24.4034H35.6407C37.835 24.4034 39.7186 23.4138 41.1527 22.2402C42.5864 21.067 43.6313 19.6622 44.1665 18.7021L44.2127 18.6191L44.2369 18.5271C45.4822 13.7759 49.8063 10.2715 54.9469 10.2715C61.0613 10.2715 66.018 15.2282 66.018 21.3426C66.018 22.1246 65.937 22.8869 65.7833 23.6219Z" stroke="#197BBD" stroke-width="1.5"/>
<path d="M88.3507 14.4884C88.1996 16.1237 87.5858 17.6823 86.5812 18.9815C85.5767 20.2808 84.2229 21.2671 82.6782 21.8251C81.1336 22.383 79.4619 22.4895 77.859 22.1321C76.256 21.7747 74.788 20.9681 73.6267 19.8068C72.4653 18.6455 71.6588 17.1775 71.3014 15.5745C70.9439 13.9715 71.0504 12.2999 71.6084 10.7552C72.1663 9.21058 73.1526 7.85676 74.4519 6.8522C75.7512 5.84764 77.3097 5.23389 78.9451 5.08276C77.9876 6.37809 77.5269 7.97405 77.6467 9.58037C77.7665 11.1867 78.4588 12.6967 79.5978 13.8356C80.7368 14.9746 82.2468 15.667 83.8531 15.7868C85.4594 15.9066 87.0554 15.4458 88.3507 14.4884V14.4884Z" stroke="#197BBD" stroke-width="1.5" stroke-linecap="round" stroke-linejoin="round"/>
<rect x="39.7032" y="38.6354" width="16.2694" height="13.4883" fill="white"/>
<path d="M47.838 49.4714V39.9809" stroke="#197BBD" stroke-width="1.5" stroke-linecap="round" stroke-linejoin="round"/>
<path d="M47.838 48.1258V38.6354" stroke="#197BBD" stroke-width="1.5" stroke-linecap="round" stroke-linejoin="round"/>
<path d="M43.0925 43.3806L47.8378 38.6354L52.583 43.3806" stroke="#197BBD" stroke-width="1.5" stroke-linecap="round" stroke-linejoin="round"/>
<path d="M17.2991 93.4029C17.2991 92.0056 18.3417 90.869 19.739 90.869C20.9226 90.869 21.508 91.5868 21.508 91.5868H22.3071C22.3071 91.5868 21.5892 90.2537 19.739 90.2537C17.9999 90.2537 16.5898 91.6638 16.5898 93.4029C16.5898 95.142 17.9999 96.5521 19.739 96.5521C21.3499 96.5521 22.8455 95.3129 22.6446 93.0268H19.8672V93.6422H21.9609C21.9609 94.9369 21.0551 95.9368 19.739 95.9368C18.3417 95.9368 17.2991 94.8001 17.2991 93.4029ZM23.9308 96.4666H24.5888V92.168H23.9308V96.4666ZM23.8197 90.9544C23.8197 91.198 24.0205 91.3903 24.2598 91.3903C24.4991 91.3903 24.6999 91.198 24.6999 90.9544C24.6999 90.7152 24.4991 90.5186 24.2598 90.5186C24.0205 90.5186 23.8197 90.7152 23.8197 90.9544ZM27.721 95.6718L26.2425 92.168H25.5118L27.3834 96.4666H28.0585L29.9301 92.168H29.1994L27.721 95.6718ZM32.5922 96.5521C34.139 96.5521 34.6432 95.3898 34.6432 95.3898H33.904C33.904 95.3898 33.498 95.988 32.5922 95.988C31.8102 95.988 31.165 95.424 31.0368 94.6121H34.844C34.9252 93.0226 33.8271 92.0825 32.5922 92.0825C31.3573 92.0825 30.3574 92.9969 30.3574 94.3173C30.3574 95.6377 31.3573 96.5521 32.5922 96.5521ZM32.5922 92.6466C33.3784 92.6466 34.0322 93.2234 34.1475 94.0481H31.0325C31.1522 93.2234 31.8017 92.6466 32.5922 92.6466ZM38.8521 98.7398H39.5272L42.3902 92.168H41.6595L40.181 95.6718L38.7026 92.168H37.9719L39.8434 96.4666L38.8521 98.7398ZM43.0311 94.3173C43.0311 95.6377 44.031 96.5521 45.2659 96.5521C46.5008 96.5521 47.5007 95.6377 47.5007 94.3173C47.5007 92.9969 46.5008 92.0825 45.2659 92.0825C44.031 92.0825 43.0311 92.9969 43.0311 94.3173ZM43.6891 94.3173C43.6891 93.3516 44.3942 92.6466 45.2659 92.6466C46.1376 92.6466 46.8426 93.3516 46.8426 94.3173C46.8426 95.283 46.1376 95.988 45.2659 95.988C44.3942 95.988 43.6891 95.283 43.6891 94.3173ZM48.5262 94.3173C48.5262 95.6804 49.1415 96.5521 50.4106 96.5521C51.5344 96.5521 51.7865 95.6932 51.8078 95.6462V96.4666H52.4659V92.168H51.8078V94.3173C51.8078 95.236 51.4575 95.988 50.496 95.988C49.5346 95.988 49.1842 95.236 49.1842 94.3173V92.168H48.5262V94.3173ZM56.1962 92.168C56.1962 92.168 55.8843 92.0825 55.6023 92.0825C54.9528 92.0782 54.4827 92.45 54.3204 92.9884V92.168H53.6623V96.4666H54.3204V94.3173C54.3204 93.3772 54.675 92.6508 55.598 92.6466C55.8928 92.6466 56.1962 92.7192 56.1962 92.7192V92.168ZM66.4813 94.2318C66.4813 92.9969 65.9686 92.0825 64.6995 92.0825C63.5757 92.0825 63.2125 93.0568 63.2125 93.0568C63.2125 93.0568 62.8963 92.0825 61.64 92.0825C60.6615 92.0825 60.3838 92.8559 60.3624 92.9029V92.168H59.7043V96.4666H60.3624V94.3173C60.3624 93.3986 60.6444 92.6551 61.5631 92.6551C62.4818 92.6551 62.7638 93.3986 62.7638 94.3173V96.4666H63.4219V94.3173C63.4219 93.3986 63.7039 92.6551 64.6226 92.6551C65.5413 92.6551 65.8233 93.3986 65.8233 94.3173V96.4666H66.4813V94.2318ZM67.5068 94.3173C67.5068 95.6377 68.5067 96.5521 69.7416 96.5521C70.9765 96.5521 71.9764 95.6377 71.9764 94.3173C71.9764 92.9969 70.9765 92.0825 69.7416 92.0825C68.5067 92.0825 67.5068 92.9969 67.5068 94.3173ZM68.1649 94.3173C68.1649 93.3516 68.8699 92.6466 69.7416 92.6466C70.6133 92.6466 71.3184 93.3516 71.3184 94.3173C71.3184 95.283 70.6133 95.988 69.7416 95.988C68.8699 95.988 68.1649 95.283 68.1649 94.3173ZM76.9416 94.3173C76.9416 92.9542 76.3263 92.0825 75.0572 92.0825C73.9334 92.0825 73.6813 92.9414 73.66 92.9884V92.168H73.0019V96.4666H73.66V94.3173C73.66 93.3986 74.0103 92.6466 74.9718 92.6466C75.9332 92.6466 76.2836 93.3986 76.2836 94.3173V96.4666H76.9416V94.3173ZM80.2019 96.5521C81.7487 96.5521 82.253 95.3898 82.253 95.3898H81.5137C81.5137 95.3898 81.1078 95.988 80.2019 95.988C79.42 95.988 78.7747 95.424 78.6465 94.6121H82.4538C82.535 93.0226 81.4368 92.0825 80.2019 92.0825C78.967 92.0825 77.9671 92.9969 77.9671 94.3173C77.9671 95.6377 78.967 96.5521 80.2019 96.5521ZM80.2019 92.6466C80.9882 92.6466 81.6419 93.2234 81.7573 94.0481H78.6423C78.7619 93.2234 79.4114 92.6466 80.2019 92.6466ZM83.9835 98.7398H84.6587L87.5216 92.168H86.7909L85.3124 95.6718L83.834 92.168H83.1033L84.9749 96.4666L83.9835 98.7398ZM4.50148 104.07C4.50148 104.07 4.04426 103.083 2.88201 103.083C1.68984 103.083 0.689961 104.04 0.689961 105.317C0.689961 106.595 1.68984 107.552 2.88201 107.552C4.04426 107.552 4.50148 106.565 4.50148 106.565V107.467H5.15952V103.168H4.50148V104.07ZM4.50148 105.317C4.50148 106.283 3.79643 106.988 2.92474 106.988C2.05305 106.988 1.348 106.283 1.348 105.317C1.348 104.352 2.05305 103.647 2.92474 103.647C3.79643 103.647 4.50148 104.352 4.50148 105.317ZM7.7105 106.45L6.69352 103.168H5.97139L7.39857 107.467H8.01388L9.04367 104.172L10.0735 107.467H10.6888L12.116 103.168H11.3938L10.3768 106.45L9.35133 103.168H8.73602L7.7105 106.45ZM14.778 107.552C16.3249 107.552 16.8291 106.39 16.8291 106.39H16.0898C16.0898 106.39 15.6839 106.988 14.778 106.988C13.9961 106.988 13.3509 106.424 13.2227 105.612H17.0299C17.1111 104.023 16.0129 103.083 14.778 103.083C13.5431 103.083 12.5433 103.997 12.5433 105.317C12.5433 106.638 13.5431 107.552 14.778 107.552ZM14.778 103.647C15.5643 103.647 16.218 104.223 16.3334 105.048H13.2184C13.338 104.223 13.9875 103.647 14.778 103.647ZM19.6108 106.988C18.6836 106.988 18.4913 106.475 18.4913 106.475H17.8076C17.8076 106.475 17.9272 107.552 19.6108 107.552C20.7303 107.552 21.4396 107.116 21.4396 106.3C21.4396 105.424 20.7261 105.082 19.6108 104.958C18.8588 104.873 18.5639 104.655 18.5639 104.288C18.5639 103.929 18.8545 103.647 19.6108 103.647C20.4739 103.647 20.6363 104.159 20.6363 104.159H21.32C21.32 104.159 21.1448 103.083 19.6108 103.083C18.4272 103.083 17.8888 103.647 17.8888 104.288C17.8888 105.057 18.5041 105.416 19.6108 105.552C20.538 105.668 20.7645 105.86 20.7645 106.3C20.7645 106.74 20.3244 106.988 19.6108 106.988ZM22.2088 105.317C22.2088 106.638 23.2087 107.552 24.4436 107.552C25.6785 107.552 26.6783 106.638 26.6783 105.317C26.6783 103.997 25.6785 103.083 24.4436 103.083C23.2087 103.083 22.2088 103.997 22.2088 105.317ZM22.8668 105.317C22.8668 104.352 23.5719 103.647 24.4436 103.647C25.3153 103.647 26.0203 104.352 26.0203 105.317C26.0203 106.283 25.3153 106.988 24.4436 106.988C23.5719 106.988 22.8668 106.283 22.8668 105.317ZM34.4808 105.232C34.4808 103.997 33.9681 103.083 32.699 103.083C31.5752 103.083 31.212 104.057 31.212 104.057C31.212 104.057 30.8958 103.083 29.6395 103.083C28.661 103.083 28.3833 103.856 28.3619 103.903V103.168H27.7039V107.467H28.3619V105.317C28.3619 104.399 28.6439 103.655 29.5626 103.655C30.4813 103.655 30.7633 104.399 30.7633 105.317V107.467H31.4214V105.317C31.4214 104.399 31.7034 103.655 32.6221 103.655C33.5408 103.655 33.8228 104.399 33.8228 105.317V107.467H34.4808V105.232ZM37.7411 107.552C39.288 107.552 39.7922 106.39 39.7922 106.39H39.0529C39.0529 106.39 38.647 106.988 37.7411 106.988C36.9592 106.988 36.314 106.424 36.1858 105.612H39.993C40.0742 104.023 38.976 103.083 37.7411 103.083C36.5062 103.083 35.5064 103.997 35.5064 105.317C35.5064 106.638 36.5062 107.552 37.7411 107.552ZM37.7411 103.647C38.5274 103.647 39.1811 104.223 39.2965 105.048H36.1815C36.3011 104.223 36.9506 103.647 37.7411 103.647ZM45.0522 106.988C44.125 106.988 43.9327 106.475 43.9327 106.475H43.249C43.249 106.475 43.3687 107.552 45.0522 107.552C46.1718 107.552 46.8811 107.116 46.8811 106.3C46.8811 105.424 46.1675 105.082 45.0522 104.958C44.3002 104.873 44.0053 104.655 44.0053 104.288C44.0053 103.929 44.2959 103.647 45.0522 103.647C45.9154 103.647 46.0778 104.159 46.0778 104.159H46.7614C46.7614 104.159 46.5862 103.083 45.0522 103.083C43.8686 103.083 43.3302 103.647 43.3302 104.288C43.3302 105.057 43.9455 105.416 45.0522 105.552C45.9795 105.668 46.2059 105.86 46.2059 106.3C46.2059 106.74 45.7658 106.988 45.0522 106.988ZM48.4792 103.168H47.8211V109.74H48.4792V106.569C48.5005 106.616 48.9663 107.552 50.0986 107.552C51.2908 107.552 52.2907 106.595 52.2907 105.317C52.2907 104.04 51.2908 103.083 50.0986 103.083C48.9663 103.083 48.5005 104.023 48.4792 104.07V103.168ZM48.4792 105.317C48.4792 104.352 49.1842 103.647 50.0559 103.647C50.9276 103.647 51.6327 104.352 51.6327 105.317C51.6327 106.283 50.9276 106.988 50.0559 106.988C49.1842 106.988 48.4792 106.283 48.4792 105.317ZM56.9568 104.07C56.9568 104.07 56.4996 103.083 55.3373 103.083C54.1452 103.083 53.1453 104.04 53.1453 105.317C53.1453 106.595 54.1452 107.552 55.3373 107.552C56.4996 107.552 56.9568 106.565 56.9568 106.565V107.467H57.6149V103.168H56.9568V104.07ZM56.9568 105.317C56.9568 106.283 56.2518 106.988 55.3801 106.988C54.5084 106.988 53.8033 106.283 53.8033 105.317C53.8033 104.352 54.5084 103.647 55.3801 103.647C56.2518 103.647 56.9568 104.352 56.9568 105.317ZM62.8407 104.245C62.8407 104.245 62.3835 103.083 60.8751 103.083C59.6403 103.083 58.6404 104.04 58.6404 105.317C58.6404 106.595 59.6403 107.552 60.8751 107.552C62.3835 107.552 62.8407 106.39 62.8407 106.39H62.1015C62.1015 106.39 61.7426 106.988 60.8751 106.988C60.0035 106.988 59.2984 106.283 59.2984 105.317C59.2984 104.352 60.0035 103.647 60.8751 103.647C61.7426 103.647 62.1015 104.245 62.1015 104.245H62.8407ZM65.7378 107.552C67.2846 107.552 67.7889 106.39 67.7889 106.39H67.0496C67.0496 106.39 66.6437 106.988 65.7378 106.988C64.9559 106.988 64.3106 106.424 64.1825 105.612H67.9897C68.0709 104.023 66.9727 103.083 65.7378 103.083C64.5029 103.083 63.503 103.997 63.503 105.317C63.503 106.638 64.5029 107.552 65.7378 107.552ZM65.7378 103.647C66.5241 103.647 67.1778 104.223 67.2932 105.048H64.1782C64.2978 104.223 64.9473 103.647 65.7378 103.647ZM71.6132 107.467H72.2712V103.168H71.6132V107.467ZM71.5021 101.954C71.5021 102.198 71.7029 102.39 71.9422 102.39C72.1815 102.39 72.3823 102.198 72.3823 101.954C72.3823 101.715 72.1815 101.519 71.9422 101.519C71.7029 101.519 71.5021 101.715 71.5021 101.954ZM77.5185 105.317C77.5185 103.954 76.9032 103.083 75.6341 103.083C74.5103 103.083 74.2582 103.941 74.2368 103.988V103.168H73.5788V107.467H74.2368V105.317C74.2368 104.399 74.5872 103.647 75.5486 103.647C76.5101 103.647 76.8604 104.399 76.8604 105.317V107.467H77.5185V105.317ZM85.2227 104.245C85.2227 104.245 84.7655 103.083 83.2571 103.083C82.0222 103.083 81.0223 104.04 81.0223 105.317C81.0223 106.595 82.0222 107.552 83.2571 107.552C84.7655 107.552 85.2227 106.39 85.2227 106.39H84.4835C84.4835 106.39 84.1245 106.988 83.2571 106.988C82.3854 106.988 81.6804 106.283 81.6804 105.317C81.6804 104.352 82.3854 103.647 83.2571 103.647C84.1245 103.647 84.4835 104.245 84.4835 104.245H85.2227ZM86.9105 107.467V100.989H86.2525V107.467H86.9105ZM88.0215 105.317C88.0215 106.638 89.0214 107.552 90.2563 107.552C91.4912 107.552 92.4911 106.638 92.4911 105.317C92.4911 103.997 91.4912 103.083 90.2563 103.083C89.0214 103.083 88.0215 103.997 88.0215 105.317ZM88.6795 105.317C88.6795 104.352 89.3846 103.647 90.2563 103.647C91.128 103.647 91.833 104.352 91.833 105.317C91.833 106.283 91.128 106.988 90.2563 106.988C89.3846 106.988 88.6795 106.283 88.6795 105.317ZM93.5166 105.317C93.5166 106.68 94.1319 107.552 95.401 107.552C96.5248 107.552 96.7769 106.693 96.7982 106.646V107.467H97.4563V103.168H96.7982V105.317C96.7982 106.236 96.4479 106.988 95.4864 106.988C94.525 106.988 94.1746 106.236 94.1746 105.317V103.168H93.5166V105.317ZM102.293 104.07C102.272 104.023 101.806 103.083 100.674 103.083C99.4817 103.083 98.4818 104.04 98.4818 105.317C98.4818 106.595 99.4817 107.552 100.674 107.552C101.806 107.552 102.272 106.616 102.293 106.569V107.467H102.951V100.989H102.293V104.07ZM102.293 105.317C102.293 106.283 101.588 106.988 100.717 106.988C99.8449 106.988 99.1398 106.283 99.1398 105.317C99.1398 104.352 99.8449 103.647 100.717 103.647C101.588 103.647 102.293 104.352 102.293 105.317Z" fill="#404040"/>
<defs>
<clipPath id="clip0_1_150">
<rect width="16.2694" height="16.2694" fill="white" transform="translate(32.9635 68.5473) rotate(-45)"/>
</clipPath>
</defs>
</svg>
